<svg width="21" height="20" viewBox="0 0 21 20" fill="none" xmlns="http://www.w3.org/2000/svg">
<g id="magnify 1" clip-path="url(#clip0_1_19)">
<g id="Group">
<path id="Vector" d="M20.1308 17.6011L14.9955 12.504C14.8203 12.3294 14.5987 12.2194 14.3639 12.1658C15.2521 10.9207 15.7792 9.40473 15.7792 7.76573C15.7792 3.55021 12.3246 0.120892 8.07705 0.120892C3.82992 0.120843 0.374878 3.54983 0.374878 7.76569C0.374878 11.9808 3.82992 15.4101 8.07705 15.4101C9.83995 15.4101 11.4606 14.8109 12.7595 13.8169C12.8199 14.0266 12.9276 14.2257 13.0936 14.3909L18.2297 19.4884C18.4839 19.7407 18.8211 19.8791 19.1806 19.8791C19.5402 19.8791 19.8774 19.7403 20.1312 19.4884C20.3854 19.2361 20.5253 18.9009 20.5249 18.5437C20.5245 18.1874 20.3846 17.8527 20.1308 17.6011ZM1.16893 7.7653C1.16893 3.98466 4.26767 0.908983 8.07666 0.908983C11.8853 0.908983 14.984 3.98466 14.984 7.7653C14.984 9.57852 14.2654 11.225 13.1035 12.4528C13.098 12.4575 13.0924 12.4595 13.0864 12.4638C13.0785 12.4721 13.0765 12.4827 13.0685 12.4903C11.8101 13.7996 10.0397 14.6205 8.07739 14.6205C4.26806 14.6212 1.16893 11.5452 1.16893 7.7653ZM19.5691 18.9306C19.3614 19.1371 18.9992 19.1367 18.7914 18.9306L13.6553 13.8335C13.4412 13.6206 13.4412 13.274 13.6553 13.0611C13.7594 12.9578 13.8976 12.901 14.0446 12.901C14.1916 12.901 14.3294 12.9582 14.4335 13.0611L19.5695 18.1594C19.6732 18.2623 19.73 18.3987 19.73 18.5446C19.7304 18.6901 19.6732 18.8277 19.5691 18.9306Z" fill="#010002"/>
</g>
</g>
<defs>
<clipPath id="clip0_1_19">
<rect width="20.15" height="20" fill="white" transform="translate(0.374878 1.52588e-05)"/>
</clipPath>
</defs>
</svg>
