<svg width="21" height="20" viewBox="0 0 21 20" fill="none" xmlns="http://www.w3.org/2000/svg">
<g id="phone-call 1" clip-path="url(#clip0_1_39)">
<g id="Group">
<g id="Group_2">
<path id="Vector" d="M15.9247 12.3893C15.5122 11.963 15.0146 11.735 14.4873 11.735C13.9642 11.735 13.4624 11.9587 13.0328 12.3851L11.6889 13.7147C11.5784 13.6556 11.4678 13.6008 11.3615 13.5459C11.2084 13.4699 11.0638 13.3981 10.9404 13.3222C9.68162 12.5286 8.53762 11.4944 7.44039 10.1563C6.9088 9.48937 6.55156 8.92796 6.29214 8.35811C6.64087 8.04152 6.96408 7.71227 7.27879 7.39569C7.39787 7.2775 7.51695 7.15508 7.63602 7.03689C8.52911 6.15045 8.52911 5.0023 7.63602 4.11586L6.47501 2.96349C6.34317 2.83264 6.20708 2.69756 6.0795 2.56248C5.82433 2.30077 5.55641 2.03062 5.27998 1.77735C4.86745 1.37212 4.37413 1.15685 3.85529 1.15685C3.33645 1.15685 2.83462 1.37212 2.40934 1.77735C2.40509 1.78157 2.40509 1.78157 2.40083 1.78579L0.954883 3.23365C0.410525 3.77395 0.100071 4.43245 0.032026 5.19648C-0.0700411 6.42905 0.295699 7.5772 0.576384 8.32856C1.26534 10.1732 2.29451 11.8828 3.82977 13.7147C5.6925 15.9224 7.93372 17.6657 10.4939 18.8941C11.472 19.3542 12.7777 19.8987 14.2364 19.9916C14.3257 19.9958 14.4192 20 14.5043 20C15.4867 20 16.3117 19.6497 16.9582 18.9532C16.9624 18.9447 16.9709 18.9405 16.9752 18.9321C17.1963 18.6661 17.4515 18.4255 17.7194 18.168C17.9023 17.995 18.0894 17.8135 18.2723 17.6235C18.6933 17.1887 18.9144 16.6822 18.9144 16.163C18.9144 15.6396 18.689 15.1373 18.2595 14.7151L15.9247 12.3893ZM17.4472 16.8342C17.443 16.8342 17.443 16.8384 17.4472 16.8342C17.2814 17.0114 17.1113 17.1718 16.9284 17.3491C16.6519 17.6108 16.3713 17.8852 16.1076 18.1934C15.6781 18.6492 15.172 18.8645 14.5085 18.8645C14.4447 18.8645 14.3767 18.8645 14.3129 18.8603C13.0498 18.7801 11.8761 18.2904 10.9957 17.8726C8.58865 16.716 6.47501 15.0739 4.71861 12.9929C3.2684 11.258 2.29877 9.654 1.65659 7.93177C1.26108 6.88071 1.11649 6.06181 1.18028 5.28934C1.22281 4.79547 1.41418 4.38602 1.76717 4.03566L3.21737 2.59625C3.42576 2.40208 3.6469 2.29655 3.86379 2.29655C4.13172 2.29655 4.34861 2.45696 4.4847 2.59203C4.48896 2.59625 4.49321 2.60047 4.49746 2.6047C4.75688 2.8453 5.00354 3.09435 5.26296 3.36028C5.3948 3.49536 5.53089 3.63043 5.66698 3.76973L6.82799 4.9221C7.27879 5.36954 7.27879 5.78321 6.82799 6.23065C6.70466 6.35307 6.58558 6.47548 6.46225 6.59367C6.10502 6.95669 5.76479 7.29438 5.3948 7.62363C5.3863 7.63207 5.37779 7.63629 5.37354 7.64474C5.0078 8.00775 5.07584 8.36233 5.15239 8.60293C5.15664 8.6156 5.1609 8.62826 5.16515 8.64092C5.4671 9.36696 5.89238 10.0508 6.5388 10.8655L6.54306 10.8697C7.71683 12.3049 8.95439 13.4235 10.3195 14.2804C10.4939 14.3901 10.6725 14.4788 10.8426 14.5632C10.9957 14.6392 11.1403 14.7109 11.2637 14.7869C11.2807 14.7953 11.2977 14.808 11.3147 14.8165C11.4593 14.8882 11.5954 14.922 11.7357 14.922C12.0887 14.922 12.3098 14.7025 12.3821 14.6307L13.8366 13.1871C13.9812 13.0436 14.2108 12.8705 14.4788 12.8705C14.7424 12.8705 14.9593 13.0351 15.0912 13.1786C15.0954 13.1829 15.0954 13.1829 15.0997 13.1871L17.443 15.5129C17.881 15.9435 17.881 16.3867 17.4472 16.8342Z" fill="black"/>
<path id="Vector_2" d="M10.8895 4.75748C12.0037 4.94321 13.0159 5.46663 13.8239 6.26864C14.632 7.07066 15.1551 8.07529 15.3464 9.18123C15.3932 9.45982 15.6356 9.654 15.9121 9.654C15.9461 9.654 15.9759 9.64977 16.0099 9.64555C16.3246 9.5949 16.533 9.29942 16.4819 8.98706C16.2523 7.64896 15.6144 6.42905 14.6405 5.46241C13.6666 4.49577 12.4375 3.8626 11.0894 3.63465C10.7747 3.584 10.4812 3.79084 10.426 4.09898C10.3707 4.40712 10.5748 4.70682 10.8895 4.75748Z" fill="black"/>
<path id="Vector_3" d="M20.1266 8.82248C19.7481 6.61905 18.7019 4.61401 17.0944 3.01842C15.4868 1.42283 13.4667 0.38443 11.2468 0.00874876C10.9363 -0.046126 10.6429 0.164931 10.5876 0.473074C10.5365 0.785438 10.7449 1.0767 11.0596 1.13157C13.0414 1.46504 14.8489 2.39791 16.2863 3.82044C17.7238 5.24718 18.6594 7.04116 18.9954 9.00821C19.0421 9.28681 19.2845 9.48098 19.561 9.48098C19.595 9.48098 19.6248 9.47676 19.6588 9.47254C19.9692 9.4261 20.1819 9.13062 20.1266 8.82248Z" fill="black"/>
</g>
</g>
</g>
<defs>
<clipPath id="clip0_1_39">
<rect width="20.15" height="20" fill="white"/>
</clipPath>
</defs>
</svg>
