<svg width="52" height="24" viewBox="0 0 52 24" fill="none" xmlns="http://www.w3.org/2000/svg">
<rect width="52" height="24" fill="#E5E5E5"/>
<g id="Tablet" clip-path="url(#clip0_0_1)">
<rect width="768" height="4476" transform="translate(-16 -23)" fill="white"/>
<g id="Header">
<g id="Rectangle 1">
<path d="M-16 -24H1584V672H-16V-24Z" fill="white"/>
<path d="M-16 53H1584V596H-16V53Z" fill="white"/>
</g>
<g id="&#208;&#157;&#208;&#176;&#208;&#178;&#208;&#184;&#208;&#179;&#208;&#176;&#209;&#134;&#208;&#184;&#209;&#143;">
<rect id="Rectangle 2" x="-16" y="-23" width="1600" height="71" fill="white"/>
<g id="&#208;&#155;&#208;&#190;&#208;&#179;&#208;&#190;&#209;&#130;&#208;&#184;&#208;&#191;">
<g id="Vector">
<path d="M16.7777 2.98596C17.7796 3.00835 18.7778 3.09633 19.7639 3.24914C21.5357 3.48261 23.2477 3.70335 24.7408 3.22367C25.1421 3.0768 25.5327 2.90945 25.9104 2.72278L25.961 2.69926C27.5694 1.95121 30.4741 0.600327 33.2813 0.600327C37.3375 0.600327 41.3838 3.57175 41.3838 15.7928C41.3838 16.3022 39.831 16.8753 37.3226 17.3889C33.6033 18.0758 29.8053 18.4034 26 18.3652C22.1939 18.4093 17.9561 18.0705 14.2345 17.3889C11.746 16.871 10.6112 16.3149 10.6112 15.8098V15.7334C10.5217 4.9089 13.4581 3.01143 16.7777 2.98596Z" fill="#572806"/>
<path d="M44.2007 21.8333C39.5622 22.7884 33.127 23.3785 26 23.3785C18.873 23.3785 12.4378 22.7884 7.79926 21.8333C3.53401 20.9546 0.891244 19.8807 0.891244 18.8194C0.891244 18.327 1.61788 17.7794 2.91189 17.2233C4.76929 16.4945 6.72262 15.9587 8.72995 15.6273V15.8056C8.72995 17.1554 10.8352 18.2633 14.2345 18.9638C18.0991 19.6785 22.0459 20.0188 26 19.9783C29.9556 20.0205 33.9042 19.6816 37.7705 18.968C41.1747 18.2676 43.275 17.1597 43.275 15.8098V15.6315C45.2789 15.9636 47.2288 16.4994 49.0831 17.2276C50.3821 17.7837 51.1088 18.3313 51.1088 18.8279C51.1088 19.8807 48.471 20.9546 44.2007 21.8333Z" fill="#572806"/>
</g>
</g>
</g>
</g>
</g>
<defs>
<clipPath id="clip0_0_1">
<rect width="768" height="4476" fill="white" transform="translate(-16 -23)"/>
</clipPath>
</defs>
</svg>
